# xmcd
#
# Track frame offsets: 
#        183
#        19135
#        42318
#        73008
#        101793
#        118728
#        134455
#        145308
#        168730
#        206403
#        228765
#
# Disc length: 3330 seconds
#
# Revision: 2
# Processed by: cddbd v1.5.2PL0 Copyright (c) Steve Scherf et al.
# Submitted via: ExactAudioCopy v1.3
#
DISCID=a10d000b
DTITLE=Brubeck - Dave Brubeck Quartet Live featuring Desmond
DYEAR=1995
DGENRE=Blues
TTITLE0=Shish Kebab
TTITLE1=Fare Thee Well, Annabelle
TTITLE2=Dont worry about me
TTITLE3=Lover, come back to me
TTITLE4=Royal Garden Blues
TTITLE5=How High the moon
TTITLE6=Love walked in
TTITLE7=Gone with the wind
TTITLE8=The Lonesome road
TTITLE9=Three to get ready
TTITLE10=Blue rondo a la turk
EXTD=
EXTT0=
EXTT1=
EXTT2=
EXTT3=
EXTT4=
EXTT5=
EXTT6=
EXTT7=
EXTT8=
EXTT9=
EXTT10=
PLAYORDER=
